<?xml version="1.0" encoding="utf-8"?>
<!-- Generator: Adobe Illustrator 18.1.0, SVG Export Plug-In . SVG Version: 6.00 Build 0)  -->
<svg version="1.1" id="Layer_1" xmlns="http://www.w3.org/2000/svg" xmlns:xlink="http://www.w3.org/1999/xlink" x="0px" y="0px"
	 viewBox="0 0 200 40" enable-background="new 0 0 200 40" xml:space="preserve">
<g>
	<g>
		<g>
			<polygon fill="#FFFFFF" points="13.2,0 13.2,36.5 34.3,0 			"/>
		</g>
		<g>
			<polygon fill="#FFFFFF" points="14.8,37.5 46.4,19.2 35.9,0.9 			"/>
		</g>
		<g>
			<polygon fill="#FFFFFF" points="11.3,1.6 0.7,20 11.3,38.4 			"/>
		</g>
		<g>
			<polygon fill="#FFFFFF" points="58.4,40 47.3,20.8 14.1,40 35.3,40 35.3,40 			"/>
		</g>
	</g>
	<g>
		<path fill="#FFFFFF" d="M70.9,29c-2,0-3.5-0.7-4.8-2.2c-1.2-1.5-1.9-3.8-1.9-6.9c0-2.8,0.7-4.9,2-6.5c1.3-1.5,2.9-2.3,4.7-2.3
			c1.5,0,2.8,0.5,3.9,1.6c1,1,1.7,2.4,2,4.1l-2,0.3c-0.2-1.2-0.6-2.2-1.2-3S71.9,13,70.8,13c-1.4,0-2.4,0.6-3.2,1.7
			c-0.8,1.2-1.2,2.9-1.2,5.2c0,2.4,0.4,4.2,1.2,5.4c0.8,1.2,1.9,1.9,3.2,1.9c1.2,0,2.2-0.5,2.9-1.4c0.7-0.9,1.1-2.2,1-3.7h-4.4v-1.9
			h6.4V22c0,2.2-0.5,4-1.7,5.2C74.1,28.4,72.6,29,70.9,29z"/>
		<path fill="#FFFFFF" d="M81.7,28.6V11.4h5.4c1.8,0,3.2,0.5,4.2,1.3c1,0.8,1.5,2.2,1.5,3.8c0,1.4-0.4,2.5-1.2,3.4
			c-0.8,0.8-1.8,1.4-3.1,1.6l3.9,7.2h-2.3l-3.7-7.1h-2.7v7.1C83.8,28.6,81.7,28.6,81.7,28.6z M83.8,19.8h3.2c1.2,0,2.1-0.2,2.8-0.8
			c0.7-0.5,1-1.4,1-2.5c0-2.2-1.3-3.2-3.9-3.2h-3.2L83.8,19.8L83.8,19.8z"/>
		<path fill="#FFFFFF" d="M108.1,28.6l-1.2-3.4h-7.1l-1,3.4h-2.2l5.7-17.3h2.2l5.7,17.3C110.2,28.6,108.1,28.6,108.1,28.6z
			 M106.3,23.5l-2.9-9.4h0l-3,9.4H106.3z"/>
		<path fill="#FFFFFF" d="M117.4,28.6v-7.3l-5.7-10h2.3l4.4,8h0l4.4-8h2.3l-5.7,10v7.3L117.4,28.6L117.4,28.6z"/>
		<path fill="#FFFFFF" d="M149.2,28.6l-1.2-3.4h-7.1l-1,3.4h-2.2l5.7-17.3h2.2l5.7,17.3C151.3,28.6,149.2,28.6,149.2,28.6z
			 M147.4,23.5l-2.9-9.4h0l-3,9.4H147.4z"/>
		<path fill="#FFFFFF" d="M155.9,28.6V11.4h5.4c1.8,0,3.2,0.5,4.2,1.3c1,0.8,1.5,2.2,1.5,3.8c0,1.4-0.4,2.5-1.2,3.4
			c-0.8,0.8-1.8,1.4-3.1,1.6l3.9,7.2h-2.3l-3.7-7.1H158v7.1C158,28.6,155.9,28.6,155.9,28.6z M158,19.8h3.2c1.2,0,2.1-0.2,2.8-0.8
			c0.7-0.5,1-1.4,1-2.5c0-2.2-1.3-3.2-3.9-3.2H158C158,13.2,158,19.8,158,19.8z"/>
		<path fill="#FFFFFF" d="M172.3,28.6V11.4h10.2v1.9h-8.1v5.6h7.4v1.9h-7.4v6.1h8.1v1.9C182.5,28.6,172.3,28.6,172.3,28.6z"/>
		<path fill="#FFFFFF" d="M197.2,28.6l-1.2-3.4H189l-1,3.4h-2.2l5.7-17.3h2.2l5.7,17.3C199.4,28.6,197.2,28.6,197.2,28.6z
			 M195.5,23.5l-2.9-9.4h0l-3,9.4H195.5z"/>
	</g>
</g>
</svg>
