<?xml version="1.0" encoding="utf-8"?>
<!-- Generator: Adobe Illustrator 16.0.3, SVG Export Plug-In . SVG Version: 6.00 Build 0)  -->
<!DOCTYPE svg PUBLIC "-//W3C//DTD SVG 1.1//EN" "http://www.w3.org/Graphics/SVG/1.1/DTD/svg11.dtd">
<svg version="1.1" id="Layer_1" xmlns="http://www.w3.org/2000/svg" xmlns:xlink="http://www.w3.org/1999/xlink" x="0px" y="0px"
	 width="440.652px" height="128.769px" viewBox="0 0 440.652 128.769" enable-background="new 0 0 440.652 128.769"
	 xml:space="preserve">
<g>
	<path fill="#FFFFFF" d="M131.834,15.19l-7.892,64.879c-0.386,3.076-0.821,5.809-1.305,8.181c-0.484,2.378-1.055,4.402-1.711,6.076
		c-0.62,1.638-1.389,3.128-2.31,4.471s-2.02,2.561-3.288,3.653c-3.774,3.154-8.62,4.729-14.54,4.729
		c-7.07,0-13.407-3.039-19.007-9.126l6.973-10.115c4.13,4.129,7.964,6.193,11.499,6.193c3.258,0,5.66-1.644,7.211-4.931
		c1.587-3.131,2.981-9.452,4.17-18.967l6.972-55.049L131.834,15.19L131.834,15.19z"/>
	<path fill="#FFFFFF" d="M197.053,51.062l-6.912,56.128h-13.166l0.774-6.075c-5.642,4.053-11.481,6.075-17.519,6.075
		c-7.429,0-13.487-2.404-18.173-7.219c-4.688-4.819-7.029-11.053-7.029-18.71c0-8.833,2.68-16.075,8.043-21.727
		c5.442-5.647,12.414-8.473,20.914-8.473c4.012,0,7.432,0.2,10.25,0.596c2.861,1.31,5.778,3.576,8.758,6.792l0.893-7.391
		L197.053,51.062L197.053,51.062z M181.023,77.514c0-4.875-1.429-8.837-4.291-11.879c-2.859-3.081-6.553-4.625-11.083-4.625
		c-4.923,0-9.055,1.892-12.39,5.677c-3.338,3.828-5.006,8.506-5.006,14.047c0,4.836,1.389,8.801,4.17,11.877
		c2.782,3.084,6.357,4.628,10.725,4.628c4.849,0,9.037-1.932,12.569-5.796C179.257,87.501,181.023,82.86,181.023,77.514z"/>
	<path fill="#FFFFFF" d="M262.939,51.062l-38.611,63.399L204.37,51.062h13.705l9.651,35.868l20.143-35.868H262.939z"/>
	<path fill="#FFFFFF" d="M275.204,83.834c0,3.904,1.428,7.116,4.291,9.63c2.898,2.514,6.596,3.77,11.082,3.77
		c6.155,0,10.884-2.042,14.183-6.134l9.828,4.88c-3.411,4.146-6.931,7.043-10.543,8.688c-3.65,1.681-8.225,2.518-13.707,2.518
		c-8.698,0-15.601-2.404-20.704-7.217c-5.104-4.812-7.654-11.247-7.654-19.31c0-8.432,2.842-15.481,8.529-21.151
		c5.641-5.634,12.78-8.451,21.411-8.451c8.35,0,14.933,2.558,19.743,7.67c4.892,5.153,7.334,12.052,7.334,20.697
		c0,0.904-0.059,2.371-0.177,4.403h-43.616V83.834L275.204,83.834z M305.588,73.879c-1.39-8.581-6.178-12.867-14.359-12.867
		c-7.742,0-12.789,4.29-15.136,12.867H305.588z"/>
	<path fill="#FFFFFF" d="M352.889,6.553l-12.336,100.637h-13.225L339.775,6.553H352.889L352.889,6.553z"/>
	<path fill="#FFFFFF" d="M375.877,51.062l-6.911,56.128h-13.171l6.911-56.128H375.877z M379.987,24.369
		c0,1.904-0.696,3.554-2.083,4.942c-1.393,1.39-3.058,2.085-5.006,2.085c-1.947,0-3.637-0.715-5.065-2.144
		c-1.391-1.51-2.084-3.239-2.084-5.183c0-1.947,0.674-3.595,2.026-4.944c1.391-1.39,3.037-2.085,4.942-2.085
		c1.947,0,3.636,0.736,5.065,2.205C379.252,20.672,379.987,22.383,379.987,24.369z"/>
	<path fill="#FFFFFF" d="M404.344,51.062l-0.593,5.182c5.204-3.454,10.464-5.182,15.788-5.182c5.504,0,9.917,1.494,13.243,4.479
		c3.246,2.984,4.87,7.058,4.87,12.214c0,2.795-0.241,6.127-0.722,10.005l-3.788,29.433h-13.187l4.057-32.799
		c0.153-1.226,0.268-2.31,0.327-3.259c0.058-0.943,0.09-1.796,0.09-2.548c0-5.051-2.74-7.577-8.223-7.577
		c-3.378,0-6.277,1.027-8.703,3.079c-1.981,1.616-3.454,3.589-4.408,5.918c-0.517,1.185-0.955,2.637-1.311,4.353
		c-0.356,1.719-0.679,3.701-0.954,5.95l-3.336,26.877h-13.17l6.913-56.128h13.105V51.062L404.344,51.062z"/>
</g>
<path fill="#FFFFFF" stroke="#FFFFFF" stroke-width="2" stroke-miterlimit="10" d="M3.034,68.949
	c0.127,0.165,0.616-0.013,0.616-0.013l1.405-0.514l21.218-7.786l1.839-0.673c0,0,0.88-0.303,1.129-0.501
	c0.234-0.18,0.729-0.922,0.729-0.922l1.006-1.487L66.629,4.337l0.923-1.36c0,0,0.291-0.466,0.211-0.573
	c-0.09-0.12-0.489,0.271-0.489,0.271L66.13,3.852L4.359,67.261l-1.136,1.17C3.223,68.431,2.881,68.753,3.034,68.949z"/>
<path fill="#FFFFFF" stroke="#FFFFFF" stroke-width="2" stroke-miterlimit="10" d="M67.892,58.475
	c-0.154-0.138-0.791,0.086-0.791,0.086l-1.404,0.514l-21.222,7.782l-1.838,0.679c0,0-0.881,0.303-1.131,0.497
	c-0.232,0.181-0.729,0.923-0.729,0.923l-1.006,1.483L4.118,123.161l-0.921,1.357c0,0-0.249,0.396-0.168,0.507
	c0.09,0.121,0.447-0.208,0.447-0.208l1.144-1.173l61.772-63.408l1.138-1.165C67.527,59.069,68.035,58.604,67.892,58.475z"/>
</svg>
